<?xml version="1.0" encoding="UTF-8"?>
<svg id="Layer_1" xmlns="http://www.w3.org/2000/svg" version="1.1" viewBox="0 0 2717.1 914.8">
  <!-- Generator: Adobe Illustrator 29.7.1, SVG Export Plug-In . SVG Version: 2.1.1 Build 8)  -->
  <defs>
    <style>
      .st0 {
        fill: #ee2f43;
      }

      .st1 {
        fill: #fff;
      }

      .st2 {
        fill: #016b4f;
      }
    </style>
  </defs>
  <g id="Layer_2">
    <g id="Layer_1-2">
      <g>
        <path class="st1" d="M1759.3,840.6c-8-2.8-14.3-7.3-18.6-13.1-5.6-7.5-6.8-16.2-6.9-22.3-.5-19.4-2.3-243.5-3.9-550.7-106.9,0-213.7.1-320.5.2,20.6,30.7,41.3,61.3,61.9,92,.8,1.2,2,3,2.9,5.4,0-.6,0-1.3,0-1.9h151c0,6.3,0,12.2,0,18.9-50.4,0-100.3,0-150.8,0,0-2.3,0-4.6,0-6.8-.3,1-.8,2.1-1.4,3.2-22.8,41.9-43.5,87.1-62.6,136.8,73.5,0,147,0,221,0,0,5.3,0,9.8.1,14.8-75.7,0-151.1,0-226.7,0-2.7,7.2-5.4,14.6-8,22,78.1,0,156.2,0,234.7,0,0,4.8.2,9.4.3,14.8-80.1,0-160.1.2-240.3.3-2.5,7.2-4.9,14.6-7.4,22,82.5,0,164.9-.2,247.7-.3,0,5.4.1,9.8.2,14.8-84.3,0-168.4.2-252.7.3-1,3.2-2,6.4-3,9.6-1.3,4.1-2.5,8.3-3.8,12.4,86.5,0,172.9-.2,259.6-.3,0,5.1,0,9.7,0,15.1-88.1,0-175.8,0-264,0-2.1,7.3-4.2,14.7-6.2,22,90.1,0,179.9,0,270.4,0,0,5,0,9.4,0,14.8-91.4,0-182.6,0-274.3,0-1.9,7.4-3.7,14.7-5.5,22.1,93.5,0,186.6,0,280.1,0,0,5.1.1,9.7.2,14.8-94.8,0-189,.1-283.9.2-1.7,7.4-3.3,14.7-4.8,22.1,96.2-.1,192.1-.2,288.8-.3,0,4.8.1,9.4.2,14.8-97.3.1-194.5.2-292,.3-1.5,7.4-2.8,14.7-4.1,22,99-.1,197.3-.2,296.2-.3,0,5.1,0,9.7,0,15.1-100,0-199.7,0-300,0v.3h-93.9v-.3c-96.6,0-193,0-290,0v-14.8c96.7,0,193,0,290,0v-22.3c-96.8.1-193.1.2-290,.3v-14.8c96.7-.1,193.1-.2,290-.3v-19h11.4c6.7,0,13.5,0,20.2,0h.4c2.8-10.9,5.6-21.7,8.4-32.6,7.8-30.2,15.9-61.5,24.1-92.2,1.4-5.3,3.1-10.6,4.8-15.7-19.1,7.6-38.6,11.2-58.2,10.8h-.5c0,5.3,0,10.6.1,16-23.8,0-47.5,0-71.2,0-6.7,9.4-15.5,16.9-25.9,22,32.3,0,64.6,0,97-.1,0,5.1.2,9.7.2,15.1-100.3,0-200.2,0-301,0v-14.9h0v-22h0v-88.8h0v-29h60.9c19.4,0,37.3,7.1,50.7,19.9,13.9-14.1,33.7-22.6,56.3-22.6s49,11.8,62.6,31.6h69.7c39.6-2.5,70.7-26.2,76.7-55.5,5-24.3-8.6-45.2-10.9-48.5-9.4-13.8-24.6-25.1-46-30.3l-8.6-2.1v-111.1c-138.9,0-277.6.2-416.5.3,0,2.1-.1,3.6-.1,5.1,1.3,181.5,2.5,363.1,3.8,544.6.2,23.6,15.6,38.3,39.9,38.3,275.4-.2,550.9-.3,826.3-.4,15.8,0,31.6,0,47.4-.1,0-.3.1-.6.2-.8-.8-.3-1.7-.7-2.5-1h0ZM1101.4,350.2c0,6.5.2,12.3.2,18.9h-151.1c0-6.5,0-12.1,0-18.6,50.3-.1,100.4-.2,150.9-.3ZM949.5,650.1c100.4,0,200.4,0,301,0,0,5,.1,9.6.2,14.8-100.6,0-200.5,0-301.2,0v-14.8ZM949.5,687c100.4,0,200.4,0,301.2,0,0,5.1.2,9.5.2,14.8-100.5.1-200.7.2-301.5.3v-15.1Z"/>
        <path class="st1" d="M1337.7,448.7c-6.4,37.6-42,66.7-82.6,67.1-1.4,0-2.8,0-4.1,0v48.1c23.9.5,47.5-5.5,70.8-17.9,1.9-1,4.2-1.3,6.3-1.9-4.3,12.9-9.4,25.6-12.9,38.7-11.5,42.9-22.4,85.9-33.6,128.9-.3,1.3-.7,2.5-1.3,4.2-9.8,0-19.5,0-29.3,0v49h73.5c.4-1.7,1-3.3,1.3-5,9.8-54.9,23.2-109.1,39.8-162.6,25.4-81.6,56.3-161.2,97.5-237.1,1.7-3.2.5-5.1-1.1-7.5-62-92.1-124-184.3-186-276.4-.9-1.3-2-2.5-3.5-4.5v285.5c47.5,11.6,72,52.6,65.4,91.5h0ZM1327.4,543.7c.2.1.4.2.7.3,0,0,0,0,0,0-.2-.1-.4-.2-.6-.3Z"/>
        <path class="st1" d="M1061.1,598.7c-6.5,6.2-14,11.1-22.2,14.4,14.1,0,28.2,0,42.3,0-7.5-3.7-14.3-8.6-20-14.4h0Z"/>
        <path class="st1" d="M1116.9,507.6c13.5,0,24.9,5.9,30.8,15.9l26.3-14.8c-11.6-18.3-32.9-30-57.1-30-40.1,0-69.2,29.2-69.2,67.3s29.1,67.3,69.2,67.3,45.7-11.7,57.1-30l-26.3-14.8c-5.7,10-17.3,15.9-30.8,15.9-23.6,0-38.8-15.3-38.8-38.5s15.2-38.5,38.8-38.5h0Z"/>
        <path class="st1" d="M1011.1,509.8c14.2,0,25.4,6.5,31.2,17.6,2.7-10.6,7.6-20,14.3-28-11.5-11.3-27.5-18.1-45.5-18.1h-53.3v129.5h53.3c18,0,33.8-6.7,45.4-17.9-6.7-8-11.6-17.5-14.2-28-5.8,11-17,17.5-31.1,17.5h-22.8v-72.5h22.8,0Z"/>
        <ellipse class="st2" cx="1253.9" cy="435.5" rx="52.7" ry="50.4"/>
        <ellipse class="st0" cx="1253.9" cy="435.5" rx="28" ry="26.8"/>
      </g>
    </g>
  </g>
</svg>