<?xml version="1.0" encoding="UTF-8"?>
<svg id="Layer_1" xmlns="http://www.w3.org/2000/svg" version="1.1" viewBox="0 0 3953.8 1190.9">
  <!-- Generator: Adobe Illustrator 29.7.1, SVG Export Plug-In . SVG Version: 2.1.1 Build 8)  -->
  <defs>
    <style>
      .st0 {
        fill: #ee2f43;
      }

      .st1 {
        fill: #fff;
      }

      .st2 {
        fill: #016b4f;
      }
    </style>
  </defs>
  <g id="Layer_2">
    <g id="Layer_1-2">
      <g>
        <path class="st1" d="M1262.3,1048.1c-9.2-3.4-16.4-8.6-21.3-15.5-6.4-8.9-7.8-19.1-8-26.3-.6-23-2.6-287.6-4.5-650.5-122.8,0-245.4.2-368,.2,23.7,36.2,47.4,72.5,71.1,108.7.9,1.4,2.3,3.6,3.3,6.4,0-.8,0-1.5,0-2.3h173.5c0,7.4,0,14.4,0,22.3-57.9,0-115.2,0-173.2.1,0-2.8,0-5.4-.1-8.1-.4,1.2-.9,2.5-1.6,3.7-26.1,49.5-50,102.9-71.9,161.6,84.5,0,168.9,0,253.8,0,0,6.3.1,11.5.2,17.5-86.9,0-173.5,0-260.4,0-3.1,8.6-6.2,17.2-9.2,26,89.7,0,179.4,0,269.6,0,.1,5.7.2,11.1.3,17.5-92,.1-183.8.2-275.9.3-2.9,8.6-5.7,17.2-8.5,26,94.8-.1,189.3-.2,284.5-.3,0,6.3.1,11.6.2,17.5-96.8.1-193.3.2-290.2.3-1.2,3.7-2.3,7.5-3.5,11.3-1.5,4.9-2.9,9.8-4.4,14.7,99.3-.1,198.5-.2,298.1-.3,0,6,0,11.5,0,17.8-101.1,0-201.9,0-303.2,0-2.4,8.7-4.8,17.3-7.1,26,103.4,0,206.6,0,310.5,0,0,5.9,0,11.1,0,17.4-104.9,0-209.7,0-315,0-2.2,8.7-4.3,17.4-6.3,26.1,107.4,0,214.3,0,321.7,0,0,6,.1,11.5.2,17.5-108.8,0-217.1.2-326,.2-1.9,8.7-3.8,17.4-5.5,26.1,110.5-.1,220.7-.2,331.6-.3,0,5.7.2,11.1.3,17.5-111.8.1-223.3.2-335.4.4-1.7,8.7-3.2,17.4-4.8,26,113.6-.1,226.6-.2,340.2-.4,0,6,0,11.5,0,17.8-114.9,0-229.3,0-344.5,0v.4h-107.8v-.3c-111,0-221.7,0-333.1,0v-17.5c111,0,221.7,0,333.1,0v-26.4c-111.1.1-221.8.2-333.1.4v-17.5c111.1-.1,221.7-.2,333.1-.3v-22.5h13.1c7.7,0,15.5,0,23.2,0h.4c3.2-12.8,6.5-25.7,9.7-38.5,9-35.7,18.2-72.6,27.7-108.9,1.6-6.3,3.6-12.5,5.6-18.6-22,8.9-44.4,13.2-66.8,12.8h-.6c0,6.3,0,12.5.1,18.8-27.3,0-54.5,0-81.8,0-7.6,11.1-17.8,19.9-29.7,26,37.1,0,74.2,0,111.4-.1.1,6,.2,11.5.3,17.8-115.1,0-229.9,0-345.7,0v-17.6h0v-26h0v-104.9h0v-34.2h69.9c22.3,0,42.9,8.4,58.2,23.5,16-16.6,38.6-26.7,64.6-26.7s56.3,13.9,71.9,37.3h80c45.4-2.9,81.2-31,88.1-65.5,5.8-28.7-9.9-53.4-12.5-57.3-10.8-16.3-28.3-29.7-52.8-35.8l-9.9-2.5v-131.3c-159.5.1-318.9.2-478.3.3,0,2.4-.1,4.2-.1,6,1.5,214.4,2.9,428.9,4.4,643.3.2,27.9,17.9,45.2,45.8,45.2,316.3-.2,632.6-.4,948.9-.5,18.2,0,36.3,0,54.5-.1l.2-1c-1-.4-1.9-.9-2.9-1.2h0ZM506.7,468.9c.1,7.7.2,14.5.3,22.4h-173.6c0-7.6,0-14.3,0-22,57.8-.1,115.3-.3,173.3-.4ZM332.3,823.1c115.4,0,230.2,0,345.7,0,0,5.9.1,11.3.2,17.5-115.5,0-230.3,0-345.9,0v-17.5ZM332.3,866.6c115.3,0,230.2,0,345.9,0,.1,6,.2,11.3.3,17.5-115.4.1-230.5.2-346.2.4v-17.8h0Z"/>
        <path class="st1" d="M778.1,585.2c-7.4,44.5-48.2,78.8-94.9,79.3-1.6,0-3.2,0-4.7,0v56.8c27.5.6,54.6-6.5,81.3-21.2,2.1-1.2,4.8-1.5,7.2-2.2-5,15.2-10.8,30.2-14.8,45.7-13.2,50.7-25.7,101.5-38.5,152.3-.4,1.5-.9,2.9-1.5,5-11.2,0-22.4,0-33.7,0v57.9h84.4c.5-2.1,1.1-3.9,1.5-5.9,11.3-64.9,26.6-128.9,45.7-192.1,29.2-96.4,64.6-190.4,112-280.1,2-3.8.6-6-1.3-8.9-71.2-108.9-142.4-217.7-213.6-326.6-1-1.5-2.2-2.9-4.1-5.3v337.2c54.6,13.8,82.7,62.1,75.1,108h0ZM766.2,697.5c.2.1.5.2.8.3,0,0,0,0,0,0-.2-.1-.5-.3-.7-.4Z"/>
        <path class="st1" d="M460.4,762.4c-7.4,7.3-16.1,13.1-25.5,17,16.2,0,32.4,0,48.5,0-8.7-4.4-16.4-10.1-23-17h0Z"/>
        <path class="st1" d="M524.5,654.8c15.5,0,28.6,7,35.4,18.8l30.1-17.5c-13.3-21.6-37.8-35.4-65.5-35.4-46.1,0-79.5,34.5-79.5,79.5s33.4,79.5,79.5,79.5,52.4-13.8,65.5-35.4l-30.1-17.5c-6.6,11.8-19.9,18.8-35.4,18.8-27.1,0-44.6-18.1-44.6-45.5s17.5-45.5,44.6-45.5h0Z"/>
        <path class="st1" d="M402.9,657.4c16.3,0,29.2,7.7,35.8,20.8,3.1-12.5,8.8-23.7,16.5-33.1-13.2-13.3-31.5-21.3-52.3-21.3h-61.2v153h61.2c20.6,0,38.9-8,52.1-21.2-7.7-9.4-13.3-20.7-16.4-33.1-6.6,13-19.5,20.6-35.7,20.6h-26.2v-85.7h26.2,0Z"/>
        <ellipse class="st2" cx="681.8" cy="569.6" rx="60.5" ry="59.6"/>
        <ellipse class="st0" cx="681.8" cy="569.6" rx="32.2" ry="31.7"/>
        <path class="st1" d="M1557.9,429.1h0c-13.1-18.6-30.5-31.5-51.6-38.4-12.4-4.1-28-6.3-46.5-6.5h-130v300.6h130c45.5,0,79.5-19,101.3-56.4,15.9-27.5,24-61.6,24-101.1s-1.9-32.3-5.7-49.5c-3.8-17.4-11-33.7-21.5-48.6h0ZM1394.8,440.5h54.5c27,0,45.2,7.7,54.1,22.9,9.2,15.6,13.8,38.5,13.8,68s-3.1,40-9.3,55.4c-11.2,27.9-30.4,41.5-58.7,41.5h-54.5v-187.7Z"/>
        <polygon class="st1" points="1781.6 496.8 1671.8 496.8 1671.8 384.1 1605.3 384.1 1605.3 684.7 1671.8 684.7 1671.8 552.8 1781.6 552.8 1781.6 684.7 1848 684.7 1848 384.1 1781.6 384.1 1781.6 496.8"/>
        <path class="st1" d="M1949.8,624h105.1l19.5,60.7h72.5l-106.4-300.6h-73.5l-106.1,297.2-1.2,3.4h70.1l20-60.7h0ZM1968.3,567.9l34.8-105.4,33.8,105.4h-68.6Z"/>
        <path class="st1" d="M2224.6,584.4l26.9-27.2,90.1,127.6h140.2l20-60.7h105.1l19.5,60.7h72.5l-106.4-300.6h-73.5l-102.2,286.3-118.7-162,124.1-124.4h-87.1l-110.5,117.8v-117.8h-65.9v300.6h65.9v-100.4h0ZM2520.3,567.9l34.8-105.4,33.8,105.4h-68.6Z"/>
        <path class="st1" d="M1453.7,762.6c20.7,0,36.5,6.2,46.9,18.4,5.9,6.9,10.8,17.4,14.6,31.1l.5,1.9h66.4v-2.7c-1.1-18.8-8.1-37.8-20.8-56.5-23.2-33.2-60.1-50-110-50s-68.5,12.5-92.7,37.3c-27.7,28.3-41.8,69-41.8,121.1s12.4,86.6,36.7,114.4c24.5,27.7,58.5,41.8,101.1,41.8s63.2-10.4,85.4-31c22.1-20.5,36-47.4,41.3-80.1l.5-3h-66.3l-.5,1.9c-3.9,14.8-8.9,26-14.8,33.4-10.5,13.4-26.2,20.3-46.4,20.3s-36.3-8-49.1-23.8c-13-16-19.5-40.5-19.5-72.9s6.3-57.8,18.6-75.4c12.3-17.6,28.6-26.1,50-26.1h0Z"/>
        <polygon class="st1" points="1781.6 823 1671.8 823 1671.8 710.4 1605.3 710.4 1605.3 1011 1671.8 1011 1671.8 879.1 1781.6 879.1 1781.6 1011 1848 1011 1848 710.4 1781.6 710.4 1781.6 823"/>
        <path class="st1" d="M2117.6,983.6h0c-1-4.6-1.6-13.7-1.6-26.9v-19.8c0-21.1-3-37-8.8-47.5-5.1-9.1-13.3-16.4-24.5-21.9,13.9-6,24.2-15.3,30.7-27.8,7.2-13.9,10.9-28.2,10.9-42.6s-1.9-22.7-5.7-32c-3.7-9.3-8.9-17.9-15.3-25.5-7.8-9.4-17.4-16.6-28.6-21.4-11.1-4.8-27.1-7.4-47.6-7.8h-143.9v300.6h65.5v-115.9h57.7c16.4,0,27.6,2.9,33.4,8.7,5.7,5.8,8.8,17.8,9,35.9l.4,27.5c.1,8.8,1,17.5,2.7,25.9.8,4.1,2.2,9.5,4.1,16l.5,1.9h72.7v-11.4l-1.2-.8c-5.4-3.2-8.7-8.2-10.2-15.2h0ZM1948.6,766.8h65.6c12.2,0,21.4,1.7,27.3,4.9,10.5,5.7,15.6,16.8,15.6,33.8s-5.3,25.8-16.1,31h0c-6.2,3-15.8,4.6-28.6,4.6h-63.9v-74.3Z"/>
        <path class="st1" d="M2389.6,736.5c-22.7-23.4-55.9-35.2-98.6-35.2s-75.9,11.9-98.6,35.2c-30.4,27.5-45.7,69.2-45.7,123.8s15.4,95.2,45.6,123.7c22.7,23.4,55.9,35.3,98.7,35.3s75.9-11.9,98.6-35.2c30.2-28.6,45.5-70.2,45.5-123.8s-15.3-96.2-45.5-123.7h0ZM2347.2,935.7c-13.8,17.3-32.7,26.1-56.2,26.1s-42.6-8.8-56.6-26.1c-14.1-17.5-21.3-42.9-21.3-75.4s7.2-57.9,21.3-75.4c14-17.3,33-26.1,56.6-26.1s42.5,8.8,56.2,26.2c13.9,17.6,21,42.9,21,75.3s-7.1,57.9-21,75.4Z"/>
        <polygon class="st1" points="2637.6 909.3 2524.3 710.4 2455.6 710.4 2455.6 1011 2518.2 1011 2518.2 808.4 2633.7 1009.7 2634.5 1011 2700.3 1011 2700.3 710.4 2637.6 710.4 2637.6 909.3"/>
        <rect class="st1" x="2727.5" y="710.4" width="66.5" height="300.6"/>
        <path class="st1" d="M2950.1,762.6c20.7,0,36.5,6.2,46.9,18.4,5.9,6.9,10.8,17.4,14.6,31.1l.5,1.9h66.4v-2.7c-1.1-18.8-8.1-37.8-20.8-56.5-23.2-33.2-60.1-50-110-50s-68.5,12.5-92.7,37.3c-27.7,28.3-41.8,69-41.8,121.1s12.4,86.6,36.7,114.4c24.5,27.7,58.5,41.8,101.1,41.8s63.2-10.4,85.4-31c22.1-20.5,36-47.4,41.3-80.1l.5-3h-66.3l-.5,1.9c-3.9,14.8-8.9,26-14.8,33.4-10.5,13.4-26.2,20.3-46.4,20.3s-36.3-8-49.1-23.8c-13-16-19.5-40.5-19.5-72.9s6.3-57.8,18.6-75.4c12.3-17.6,28.6-26.1,50-26.1h0Z"/>
        <polygon class="st1" points="3169 710.4 3102.1 710.4 3102.1 1011 3316.5 1011 3316.5 952.8 3169 952.8 3169 710.4"/>
        <polygon class="st1" points="3399.6 881.9 3543.2 881.9 3543.2 825.4 3399.6 825.4 3399.6 767.8 3556 767.8 3556 710.4 3334.2 710.4 3334.2 1011 3563.2 1011 3563.2 952.8 3399.6 952.8 3399.6 881.9"/>
        <path class="st1" d="M3794,859.7h0c-11.6-9.2-29.1-16.5-52.1-21.9l-51.9-12.2c-19.7-4.6-32.7-8.6-38.6-12-8.8-4.8-13-11.8-13-21.4s4.4-18.8,13.4-24.7c9.3-6.1,21.9-9.2,37.6-9.2s26.2,2.4,35.6,7.1c14.1,7.1,21.4,18.8,22.4,35.8v2.4h64.5v-2.7c-1.2-32.1-13.3-56.9-36.1-73.8-22.6-16.8-50.3-25.3-82.2-25.3s-67.7,9.1-87.6,26.9c-19.9,17.9-30.1,40.8-30.1,67.9s10.4,52,31,66.1c12,8.3,34.1,16.1,65.7,23.1l32,7c18.4,3.9,31.9,8.5,40.2,13.5,7.9,4.9,11.7,11.6,11.7,20.5,0,15.6-8.1,26.1-24.7,31.9-9,3.1-20.9,4.7-35.4,4.7-23.9,0-41-5.8-50.6-17.3-5.3-6.3-8.8-16-10.7-29l-.3-2.2h-63.7v2.6c0,31.4,11.6,56.5,34.4,74.5,22.6,17.9,54.1,26.9,93.4,26.9s68.9-9.2,90.1-27.4c21.4-18.3,32.2-41.6,32.2-69.2s-9.2-48-27.4-62.4h0Z"/>
      </g>
    </g>
  </g>
</svg>