<?xml version="1.0" encoding="UTF-8"?>
<svg id="Layer_1" xmlns="http://www.w3.org/2000/svg" version="1.1" viewBox="0 0 1936.2 526.4">
  <!-- Generator: Adobe Illustrator 29.7.1, SVG Export Plug-In . SVG Version: 2.1.1 Build 8)  -->
  <defs>
    <style>
      .st0 {
        fill: #010101;
      }

      .st1 {
        fill: #ee2f43;
      }

      .st2 {
        fill: #016b4f;
      }
    </style>
  </defs>
  <g id="Layer_2">
    <g id="Layer_1-2">
      <g>
        <path class="st0" d="M563.6,487.1c-4.9-1.8-8.8-4.6-11.4-8.3-3.4-4.8-4.2-10.2-4.3-14.1-.3-12.3-1.4-154.3-2.4-348.9-65.8,0-131.6,0-197.4.1,12.7,19.4,25.4,38.9,38.1,58.3.5.8,1.2,1.9,1.8,3.4,0-.4,0-.8,0-1.2h93c0,4,0,7.7,0,11.9-31,0-61.8,0-92.9,0,0-1.5,0-2.9,0-4.3-.2.6-.5,1.3-.9,2-14,26.6-26.8,55.2-38.6,86.6,45.3,0,90.6,0,136.1,0,0,3.4,0,6.2,0,9.4-46.6,0-93.1,0-139.6,0-1.7,4.6-3.3,9.2-4.9,13.9,48.1,0,96.2,0,144.6,0,0,3,.1,6,.2,9.4-49.3,0-98.6.1-148,.2-1.5,4.6-3,9.2-4.5,13.9,50.8,0,101.6-.1,152.6-.2,0,3.4,0,6.2.1,9.4-51.9,0-103.7.1-155.6.2-.6,2-1.2,4-1.9,6.1-.8,2.6-1.6,5.2-2.3,7.9,53.3,0,106.5-.1,159.9-.2,0,3.2,0,6.2,0,9.6-54.2,0-108.3,0-162.6,0-1.3,4.6-2.6,9.3-3.8,14,55.5,0,110.8,0,166.5,0,0,3.1,0,6,0,9.4-56.3,0-112.5,0-169,0-1.2,4.7-2.3,9.3-3.4,14,57.6,0,114.9,0,172.5,0,0,3.2,0,6.2.1,9.4-58.4,0-116.4,0-174.9.1-1,4.7-2,9.3-3,14,59.3,0,118.4-.1,177.9-.2,0,3,0,6,.1,9.4-60,0-119.8.1-179.9.2-.9,4.6-1.8,9.3-2.6,13.9,60.9,0,121.5-.1,182.4-.2,0,3.2,0,6.2,0,9.6-61.6,0-123,0-184.8,0v.2h-57.8v-.2c-59.5,0-118.9,0-178.6,0v-9.4c59.5,0,118.9,0,178.6,0v-14.2c-59.6,0-118.9.1-178.6.2v-9.4c59.6,0,118.9-.1,178.6-.2v-12.1h7.1c4.1,0,8.3,0,12.4,0h.2c1.7-6.9,3.5-13.8,5.2-20.7,4.8-19.2,9.8-39,14.8-58.4.9-3.4,1.9-6.7,3-10-11.8,4.8-23.8,7.1-35.8,6.8h-.3c0,3.4,0,6.7,0,10.1-14.6,0-29.2,0-43.9,0-4.1,5.9-9.6,10.7-15.9,14,19.9,0,39.8,0,59.8,0,0,3.2.1,6.2.1,9.6-61.8,0-123.3,0-185.4,0v-9.4h0v-13.9h0v-56.3h0v-18.4h37.5c11.9,0,23,4.5,31.2,12.6,8.6-8.9,20.7-14.3,34.7-14.3s30.2,7.5,38.6,20h42.9c24.4-1.6,43.5-16.6,47.3-35.1,3.1-15.4-5.3-28.6-6.7-30.8-5.8-8.7-15.2-15.9-28.3-19.2l-5.3-1.3v-70.4c-85.5,0-171,.1-256.6.2,0,1.3,0,2.3,0,3.2.8,115,1.6,230,2.4,345,0,15,9.6,24.2,24.6,24.2,169.6-.1,339.3-.2,508.9-.3,9.7,0,19.5,0,29.2,0,0-.2,0-.4,0-.5-.5-.2-1-.5-1.5-.7h0ZM158.4,176.4c0,4.1.1,7.8.2,12h-93.1c0-4.1,0-7.7,0-11.8,31,0,61.8-.1,93-.2h0ZM64.8,366.4c61.9,0,123.4,0,185.4,0,0,3.1,0,6,.1,9.4-61.9,0-123.5,0-185.5,0v-9.4h0ZM64.8,389.7c61.8,0,123.5,0,185.5,0,0,3.2.1,6,.1,9.4-61.9,0-123.6.1-185.7.2v-9.6Z"/>
        <path class="st0" d="M303.9,238.8c-4,23.9-25.9,42.2-50.9,42.5-.9,0-1.7,0-2.5,0v30.5c14.7.3,29.3-3.5,43.6-11.4,1.1-.6,2.6-.8,3.9-1.2-2.7,8.2-5.8,16.2-8,24.5-7.1,27.2-13.8,54.5-20.7,81.7-.2.8-.5,1.6-.8,2.7-6,0-12,0-18.1,0v31.1h45.3c.3-1.1.6-2.1.8-3.1,6-34.8,14.3-69.1,24.5-103,15.6-51.7,34.7-102.1,60-150.2,1.1-2,.3-3.2-.7-4.8-38.2-58.4-76.4-116.8-114.6-175.1-.5-.8-1.2-1.6-2.2-2.8v180.9c29.3,7.4,44.3,33.3,40.3,57.9h0ZM297.6,299c.1,0,.3.1.4.2,0,0,0,0,0,0-.1,0-.3-.1-.4-.2h0Z"/>
        <path class="st0" d="M133.6,333.9c-4,3.9-8.6,7-13.7,9.1,8.7,0,17.4,0,26,0-4.6-2.4-8.8-5.4-12.3-9.1h0Z"/>
        <path class="st0" d="M167.9,276.1c8.3,0,15.4,3.8,19,10.1l16.2-9.4c-7.1-11.6-20.3-19-35.2-19-24.7,0-42.7,18.5-42.7,42.7s17.9,42.7,42.7,42.7,28.1-7.4,35.2-19l-16.2-9.4c-3.5,6.3-10.7,10.1-19,10.1-14.5,0-23.9-9.7-23.9-24.4s9.4-24.4,23.9-24.4h0Z"/>
        <path class="st0" d="M102.7,277.5c8.8,0,15.7,4.1,19.2,11.1,1.7-6.7,4.7-12.7,8.8-17.8-7.1-7.1-16.9-11.4-28-11.4h-32.8v82h32.8c11.1,0,20.8-4.3,27.9-11.4-4.1-5.1-7.1-11.1-8.8-17.8-3.6,7-10.4,11.1-19.2,11.1h-14.1v-45.9h14.1,0Z"/>
        <ellipse class="st2" cx="252.3" cy="230.4" rx="32.4" ry="31.9"/>
        <ellipse class="st1" cx="252.3" cy="230.4" rx="17.2" ry="17"/>
        <path d="M722.2,155.1h0c-7-9.9-16.3-16.9-27.7-20.6-6.6-2.2-15-3.4-25-3.5h-69.7v161.2h69.7c24.4,0,42.7-10.2,54.3-30.3,8.5-14.8,12.9-33,12.9-54.2s-1-17.3-3-26.5c-2-9.3-5.9-18.1-11.5-26.1h0ZM634.7,161.2h29.2c14.5,0,24.2,4.1,29,12.3,4.9,8.4,7.4,20.6,7.4,36.5s-1.7,21.4-5,29.7c-6,15-16.3,22.3-31.5,22.3h-29.2v-100.7h0Z"/>
        <polygon points="842.2 191.4 783.3 191.4 783.3 130.9 747.6 130.9 747.6 292.2 783.3 292.2 783.3 221.4 842.2 221.4 842.2 292.2 877.8 292.2 877.8 130.9 842.2 130.9 842.2 191.4"/>
        <path d="M932.4,259.6h56.4l10.5,32.6h38.9l-57-161.2h-39.4l-56.9,159.4-.7,1.8h37.6l10.7-32.6h0ZM942.3,229.5l18.7-56.6,18.2,56.6h-36.8Z"/>
        <path d="M1079.8,238.4l14.4-14.6,48.3,68.4h75.2l10.7-32.6h56.4l10.5,32.6h38.9l-57.1-161.2h-39.4l-54.8,153.6-63.7-86.9,66.6-66.7h-46.7l-59.3,63.2v-63.2h-35.3v161.2h35.3v-53.8h0ZM1238.3,229.5l18.7-56.6,18.2,56.6h-36.8Z"/>
        <path d="M666.3,333.9c11.1,0,19.6,3.3,25.2,9.8,3.2,3.7,5.8,9.3,7.8,16.7l.3,1h35.6v-1.4c-.6-10.1-4.3-20.3-11.2-30.3-12.4-17.8-32.3-26.8-59-26.8s-36.7,6.7-49.7,20c-14.9,15.2-22.4,37-22.4,64.9s6.6,46.5,19.7,61.3c13.1,14.9,31.4,22.4,54.2,22.4s33.9-5.6,45.8-16.6c11.8-11,19.3-25.4,22.2-42.9l.3-1.6h-35.6l-.3,1c-2.1,8-4.8,14-8,17.9-5.7,7.2-14,10.9-24.9,10.9s-19.5-4.3-26.3-12.8c-7-8.6-10.5-21.7-10.5-39.1s3.3-31,10-40.5c6.6-9.4,15.4-14,26.8-14h0Z"/>
        <polygon points="842.2 366.4 783.3 366.4 783.3 305.9 747.6 305.9 747.6 467.2 783.3 467.2 783.3 396.4 842.2 396.4 842.2 467.2 877.8 467.2 877.8 305.9 842.2 305.9 842.2 366.4"/>
        <path d="M1022.4,452.5h0c-.6-2.5-.8-7.3-.8-14.4v-10.6c0-11.3-1.6-19.9-4.8-25.5-2.7-4.9-7.2-8.8-13.2-11.8,7.5-3.2,13-8.2,16.5-14.9,3.9-7.4,5.9-15.1,5.9-22.8s-1-12.2-3-17.2c-2-5-4.8-9.6-8.2-13.7-4.2-5-9.3-8.9-15.3-11.5-6-2.6-14.6-4-25.5-4.2h-77.2v161.2h35.1v-62.1h31c8.8,0,14.8,1.6,17.9,4.6,3.1,3.1,4.7,9.6,4.8,19.3l.2,14.7c0,4.7.5,9.4,1.4,13.9.4,2.2,1.2,5.1,2.2,8.6l.3,1h39v-6.1l-.7-.4c-2.9-1.8-4.7-4.4-5.5-8.1h0ZM931.7,336.2h35.2c6.5,0,11.5.9,14.7,2.6,5.6,3.1,8.4,9,8.4,18.1s-2.8,13.8-8.6,16.6h0c-3.3,1.6-8.5,2.5-15.3,2.5h-34.3v-39.8h0Z"/>
        <path d="M1168.3,320c-12.2-12.5-30-18.9-52.9-18.9s-40.7,6.4-52.9,18.9c-16.3,14.8-24.5,37.1-24.5,66.4s8.2,51.1,24.5,66.3c12.2,12.5,30,18.9,52.9,18.9s40.7-6.4,52.9-18.9c16.2-15.3,24.4-37.7,24.4-66.4s-8.2-51.6-24.4-66.4h0ZM1145.5,426.8c-7.4,9.3-17.5,14-30.2,14s-22.8-4.7-30.3-14c-7.6-9.4-11.4-23-11.4-40.4s3.8-31,11.4-40.4c7.5-9.3,17.7-14,30.3-14s22.8,4.7,30.2,14c7.5,9.4,11.3,23,11.3,40.4s-3.8,31-11.3,40.4h0Z"/>
        <polygon points="1301.3 412.6 1240.5 305.9 1203.6 305.9 1203.6 467.2 1237.2 467.2 1237.2 358.5 1299.2 466.5 1299.6 467.2 1334.9 467.2 1334.9 305.9 1301.3 305.9 1301.3 412.6"/>
        <rect x="1349.5" y="305.9" width="35.7" height="161.2"/>
        <path d="M1468.9,333.9c11.1,0,19.6,3.3,25.2,9.8,3.2,3.7,5.8,9.3,7.8,16.7l.3,1h35.6v-1.4c-.6-10.1-4.3-20.3-11.2-30.3-12.4-17.8-32.3-26.8-59-26.8s-36.7,6.7-49.7,20c-14.9,15.2-22.4,37-22.4,64.9s6.6,46.5,19.7,61.3c13.1,14.9,31.4,22.4,54.2,22.4s33.9-5.6,45.8-16.6c11.8-11,19.3-25.4,22.2-42.9l.3-1.6h-35.6l-.3,1c-2.1,8-4.8,14-8,17.9-5.7,7.2-14,10.9-24.9,10.9s-19.4-4.3-26.3-12.8c-6.9-8.6-10.5-21.7-10.5-39.1s3.3-31,10-40.5c6.6-9.4,15.4-14,26.8-14h0Z"/>
        <polygon points="1586.3 305.9 1550.4 305.9 1550.4 467.2 1665.4 467.2 1665.4 435.9 1586.3 435.9 1586.3 305.9"/>
        <polygon points="1710 397.9 1787 397.9 1787 367.6 1710 367.6 1710 336.7 1793.9 336.7 1793.9 305.9 1674.9 305.9 1674.9 467.2 1797.7 467.2 1797.7 435.9 1710 435.9 1710 397.9"/>
        <path d="M1921.5,386h0c-6.2-4.9-15.6-8.9-27.9-11.8l-27.8-6.6c-10.6-2.5-17.5-4.6-20.7-6.4-4.7-2.6-7-6.3-7-11.5s2.4-10.1,7.2-13.3c5-3.3,11.8-4.9,20.2-4.9s14,1.3,19.1,3.8c7.5,3.8,11.5,10.1,12,19.2v1.3h34.6v-1.4c-.6-17.2-7.2-30.5-19.4-39.6-12.1-9-27-13.5-44.1-13.5s-36.3,4.9-47,14.4c-10.7,9.6-16.1,21.9-16.1,36.4s5.6,27.9,16.6,35.4c6.4,4.5,18.3,8.6,35.2,12.4l17.2,3.8c9.8,2.1,17.1,4.5,21.6,7.2,4.2,2.6,6.3,6.2,6.3,11,0,8.4-4.3,14-13.2,17.1-4.8,1.7-11.2,2.5-19,2.5-12.8,0-22-3.1-27.2-9.3-2.8-3.4-4.8-8.6-5.7-15.5l-.2-1.2h-34.2v1.4c0,16.9,6.2,30.3,18.4,40,12.2,9.6,29,14.4,50.1,14.4s36.9-4.9,48.3-14.7c11.5-9.8,17.3-22.3,17.3-37.1s-4.9-25.8-14.7-33.5h0Z"/>
      </g>
    </g>
  </g>
</svg>