<?xml version="1.0" encoding="UTF-8"?>
<svg id="Layer_1" xmlns="http://www.w3.org/2000/svg" version="1.1" viewBox="0 0 607.8 556.3">
  <!-- Generator: Adobe Illustrator 29.7.1, SVG Export Plug-In . SVG Version: 2.1.1 Build 8)  -->
  <defs>
    <style>
      .st0 {
        fill: #010101;
      }

      .st1 {
        fill: #ee2f43;
      }

      .st2 {
        fill: #016b4f;
      }
    </style>
  </defs>
  <g id="Layer_2">
    <g id="Layer_1-2">
      <g>
        <path class="st0" d="M589.6,480.8c-4.9-1.8-8.8-4.6-11.4-8.3-3.4-4.8-4.2-10.2-4.3-14.1-.3-12.3-1.4-154.3-2.4-348.9-65.8,0-131.6,0-197.4.1,12.7,19.4,25.4,38.9,38.1,58.3.5.8,1.2,1.9,1.8,3.4,0-.4,0-.8,0-1.2h93c0,4,0,7.7,0,11.9-31,0-61.8,0-92.9,0,0-1.5,0-2.9,0-4.3-.2.6-.5,1.3-.9,2-14,26.5-26.8,55.2-38.6,86.6,45.3,0,90.6,0,136.1,0,0,3.4,0,6.2,0,9.4-46.6,0-93.1,0-139.6,0-1.7,4.6-3.3,9.2-4.9,13.9,48.1,0,96.2,0,144.6,0,0,3,.1,6,.2,9.4-49.3,0-98.6.1-148,.2-1.5,4.6-3,9.2-4.5,13.9,50.8,0,101.6-.1,152.6-.2,0,3.4,0,6.2.1,9.4-51.9,0-103.7.1-155.6.2-.6,2-1.2,4-1.9,6.1-.8,2.6-1.6,5.2-2.3,7.9,53.3,0,106.5-.1,159.9-.2,0,3.2,0,6.2,0,9.6-54.2,0-108.3,0-162.6,0-1.3,4.6-2.6,9.3-3.8,14,55.5,0,110.8,0,166.5,0,0,3.1,0,6,0,9.4-56.3,0-112.5,0-169,0-1.2,4.7-2.3,9.3-3.4,14,57.6,0,114.9,0,172.5,0,0,3.2,0,6.2.1,9.4-58.4,0-116.4,0-174.9.1-1,4.7-2,9.3-3,14,59.3,0,118.4-.1,177.9-.2,0,3,0,6,.1,9.4-60,0-119.8.1-179.9.2-.9,4.6-1.8,9.3-2.6,13.9,60.9,0,121.5-.1,182.4-.2,0,3.2,0,6.2,0,9.6-61.6,0-123,0-184.8,0v.2h-57.8v-.2c-59.5,0-118.9,0-178.6,0v-9.4c59.5,0,118.9,0,178.6,0v-14.2c-59.6,0-118.9.1-178.6.2v-9.4c59.6,0,118.9-.1,178.6-.2v-12.1h7.1c4.1,0,8.3,0,12.4,0h.2c1.7-6.9,3.5-13.8,5.2-20.7,4.8-19.2,9.8-39,14.8-58.4.9-3.4,1.9-6.7,3-10-11.8,4.8-23.8,7.1-35.8,6.8h-.3c0,3.4,0,6.7,0,10.1-14.6,0-29.2,0-43.9,0-4.1,5.9-9.6,10.7-15.9,14,19.9,0,39.8,0,59.8,0,0,3.2.1,6.2.1,9.6-61.8,0-123.3,0-185.4,0v-9.4h0v-13.9h0v-56.3h0v-18.4h37.5c11.9,0,23,4.5,31.2,12.6,8.6-8.9,20.7-14.3,34.7-14.3s30.2,7.5,38.6,20h42.9c24.4-1.6,43.5-16.6,47.3-35.1,3.1-15.4-5.3-28.6-6.7-30.8-5.8-8.7-15.2-15.9-28.3-19.2l-5.3-1.3v-70.4c-85.5,0-171,.1-256.6.2,0,1.3,0,2.3,0,3.2.8,115,1.6,230,2.4,345,0,15,9.6,24.2,24.6,24.2,169.6,0,339.3-.2,508.9-.3,9.7,0,19.5,0,29.2,0,0-.2,0-.3,0-.5-.5-.2-1-.5-1.5-.7h0ZM184.4,170.1c0,4.1.1,7.8.2,12h-93.1c0-4.1,0-7.7,0-11.8,31,0,61.8-.1,93-.2h0ZM90.8,360.1c61.9,0,123.4,0,185.4,0,0,3.1,0,6,.1,9.4-61.9,0-123.5,0-185.5,0v-9.4h0ZM90.8,383.5c61.8,0,123.5,0,185.5,0,0,3.2.1,6,.1,9.4-61.9,0-123.6.1-185.7.2v-9.6Z"/>
        <path class="st0" d="M329.9,232.5c-4,23.9-25.9,42.2-50.9,42.5-.9,0-1.7,0-2.5,0v30.5c14.7.3,29.3-3.5,43.6-11.4,1.1-.6,2.6-.8,3.9-1.2-2.7,8.2-5.8,16.2-8,24.5-7.1,27.2-13.8,54.5-20.7,81.7-.2.8-.5,1.6-.8,2.7-6,0-12,0-18.1,0v31.1h45.3c.3-1.1.6-2.1.8-3.1,6-34.8,14.3-69.1,24.5-103,15.6-51.7,34.7-102.1,60-150.2,1.1-2,.3-3.2-.7-4.8-38.2-58.4-76.4-116.8-114.6-175.1-.5-.8-1.2-1.6-2.2-2.8v180.9c29.3,7.4,44.3,33.3,40.3,57.9h0ZM323.6,292.7c.1,0,.3.1.4.2,0,0,0,0,0,0-.1,0-.3-.1-.4-.2h0Z"/>
        <path class="st0" d="M159.6,327.5c-4,3.9-8.6,7-13.7,9.1,8.7,0,17.4,0,26,0-4.6-2.4-8.8-5.4-12.3-9.1h0Z"/>
        <path class="st0" d="M193.9,269.8c8.3,0,15.4,3.8,19,10.1l16.2-9.4c-7.1-11.6-20.3-19-35.2-19-24.7,0-42.7,18.5-42.7,42.7s17.9,42.7,42.7,42.7,28.1-7.4,35.2-19l-16.2-9.4c-3.5,6.3-10.7,10.1-19,10.1-14.5,0-23.9-9.7-23.9-24.4s9.4-24.4,23.9-24.4h0Z"/>
        <path class="st0" d="M128.7,271.2c8.8,0,15.7,4.1,19.2,11.1,1.7-6.7,4.7-12.7,8.8-17.8-7.1-7.1-16.9-11.4-28-11.4h-32.8v82h32.8c11.1,0,20.8-4.3,27.9-11.4-4.1-5.1-7.1-11.1-8.8-17.8-3.6,7-10.4,11.1-19.2,11.1h-14.1v-45.9h14.1,0Z"/>
        <ellipse class="st2" cx="278.3" cy="224.1" rx="32.4" ry="32"/>
        <ellipse class="st1" cx="278.3" cy="224.1" rx="17.2" ry="17"/>
      </g>
    </g>
  </g>
</svg>